# xmcd
#
# Track frame offsets: 
#        150
#        15520
#        40004
#        58571
#        78521
#        98721
#        123913
#        144698
#        159803
#        183530
#
# Disc length: 2659 seconds
#
# Revision: 2
# Processed by: cddbd v1.5.2PL0 Copyright (c) Steve Scherf et al.
# Submitted via: ExactAudioCopyFreeDBPlugin 1.0
#
DISCID=740a610a
DTITLE=Junk Yard Kings - Live At House Of Blues (Featuring Tommy Couga
DTITLE=r)
DYEAR=2000
DGENRE=Blues
TTITLE0=55th Street Boogie
TTITLE1=Sadie
TTITLE2=What I'd Say
TTITLE3=Give Me Back My Wig
TTITLE4=TX Flood
TTITLE5=Missionaryman
TTITLE6=Goin' Down To Eli's
TTITLE7=Coing Round The Mountain
TTITLE8=She's Gone
TTITLE9=Sweet Old Kokoma
EXTD=YEAR: 2000
EXTT0=
EXTT1=
EXTT2=
EXTT3=
EXTT4=
EXTT5=
EXTT6=
EXTT7=
EXTT8=
EXTT9=
PLAYORDER=
